# xmcd
#
# Track frame offsets: 
#        150
#        30740
#        51785
#        71507
#        94170
#        109037
#        122385
#        139655
#        157807
#        188997
#        201460
#        229492
#        248002
#        271765
#
# Disc length: 3954 seconds
#
# Revision: 0
# Processed by: cddbd v1.5.2PL0 Copyright (c) Steve Scherf et al.
# Submitted via: ExactAudioCopy v0.99pb4
#
DISCID=be0f700e
DTITLE=Various Artist - Uncut Detroit III - Live Studio Blues
DYEAR=2003
DGENRE=Blues
TTITLE0=Harmonica Shah and Howard Glazer - Early Morning Blues
TTITLE1=Harmonica Shah and Howard Glazer - Act Like You Love Me
TTITLE2=Robert Penn Blues Band - Let's Have Some Fun
TTITLE3=Robert Penn Blues Band - Heed My Warning
TTITLE4=Thornetta Davis and Brett Lucas - Send Me To The Electic Chair
TTITLE5=Thornetta Davis and Brett Lucas - Sister Friend Indeed
TTITLE6=Kenny Parker Band - She's The One For Me
TTITLE7=Kenny Parker Band - Too Hot For Me
TTITLE8=Miz Eileen Orr and The Blues Queens and Kings - Wang Dang Doodle
TTITLE9=Miz Eileen Orr and The Blues Queens and Kings - I'd Rather Drink
TTITLE9=Muddy Water
TTITLE10=Joe Weaver and R.J.'s Rhythm Rockers - It Hurt So Bad
TTITLE11=Joe Weaver and R.J.'s Rhythm Rockers - Sugarlove Baby
TTITLE12=Bugs Beddow Band - One Way Out
TTITLE13=Bugs Beddow Band - Riding With The King
EXTD=The third benefit release by WHFR, the non-commercial, volunteer-
EXTD=run radio station broadcasting 24/7 from Henry Ford Community Col
EXTD=lege in Dearborn, Michigan at 89.3fm on the dial to the Detroit a
EXTD=rea and streaming to the world on the net at http://whfr.fm
EXTT0=
EXTT1=
EXTT2=
EXTT3=
EXTT4=
EXTT5=
EXTT6=
EXTT7=
EXTT8=
EXTT9=
EXTT10=
EXTT11=
EXTT12=
EXTT13=
PLAYORDER=
